# xmcd
#
# Track frame offsets: 
#        150
#        14661
#        29996
#        47280
#        65920
#        82197
#        102957
#        119212
#        136255
#        152314
#        187083
#
# Disc length: 2824 seconds
#
# Revision: 0
# Processed by: cddbd v1.5.2PL0 Copyright (c) Steve Scherf et al.
# Submitted via: ExactAudioCopy v0.95a5
#
DISCID=a10b060b
DTITLE=Grand Lux - Carved In Stone
DYEAR=2007
DGENRE=Heavy Metal
TTITLE0=1000 Paper Cranes
TTITLE1=Fallen Angel
TTITLE2=Escaping The Clouds
TTITLE3=Eye of The Storm
TTITLE4=Through Dirt
TTITLE5=Like Hail From Blue Sky
TTITLE6=Love Reflection
TTITLE7=Never Fail
TTITLE8=Eternity In Fire
TTITLE9=Rainbow's End
TTITLE10=Escaping The Clouds (Video)
EXTD=
EXTT0=
EXTT1=
EXTT2=
EXTT3=
EXTT4=
EXTT5=
EXTT6=
EXTT7=
EXTT8=
EXTT9=
EXTT10=
PLAYORDER=
